<svg xmlns="http://www.w3.org/2000/svg" height="1000" width="1000" version="1.1" xmlns:xlink="http://www.w3.org/1999/xlink" xmlns:svgjs="http://svgjs.com/svgjs"><rect fill="#f3ebe9" width="1000" height="1000"></rect><g><path d="M424.58 373.77C394.88 363.91 351.7 347.6 370.38 368.28 370.51 368.42 370.38 368.63 370.24 368.63 367.67 368.56 355.59 368.91 360.38 379.94 357.67 382.23 355.94 387.37 360.31 391.05 359.83 391.81 357.26 396.81 361.7 400.07 361.01 404.79 365.17 407.98 370.86 409.37 373.5 410.27 376.83 409.86 376.83 406.53 385.3 410.69 392.72 411.45 398.62 409.86 399.18 410.2 404.11 413.12 411.32 416.66 412.16 416.24 425.69 396.18 425.69 396.18L424.58 373.77Z" fill="#cf5934" opacity="1" stroke-width="4" stroke="none"></path><path d="M473.17 685.05C473.58 676.3 472.4 664.15 472.82 653.81 476.34 646.97 499.27 632.33 507.33 637.43L535.63 654.02C535.7 654.02 535.84 654.09 535.84 654.23L535.84 654.99C536.05 665.89 536.19 675.47 535.08 685.39 533.2 686.23 506.48 697.96 502.11 697.96 486.21 697.96 474.07 686.23 473.17 685.05Z" fill="#cf5934" opacity="1" stroke-width="4" stroke="none"></path><path d="M564.92 685.19C563.53 676.86 559.09 665.27 557.01 653.82 560.96 649.06 580.4 643.92 589.98 641.56 595.28 642.58 618.64 653.82 618.57 654.17 620.86 664.23 622.11 674.09 622.74 685.12 621.9 686.02 611.01 696.23 599.07 696.23 583.59 696.09 566.45 686.02 564.92 685.19Z" fill="#cf5934" opacity="1" stroke-width="4" stroke="none"></path><path d="M606.42 609.82C600.46 590.17 598.65 584.21 599.97 561.02 602.95 508.07 602.12 474.61 589.56 438.04 583.1 438.11 506.41 437.97 499.75 438.04 499.54 438.87 476.15 503.42 472.75 580.46 471.5 608.29 472.54 650.56 472.61 653.68 472.61 654.24 535.84 654.17 535.84 653.89 533.55 617.24 530.08 588.58 537.09 564.42 542.57 597.05 550.34 632.65 556.94 653.82 560.76 653.82 613.37 653.96 618.29 653.96 615.73 638.76 608.92 618.98 606.42 609.82Z" fill="#ff4f32" opacity="1" stroke-width="4" stroke="none"></path><path d="M531.95 493.84C509.88 488.56 522.79 634.73 523.35 654.1 524.8 654.1 534.17 654.1 535.63 654.17 535.77 654.17 535.84 654.1 535.84 653.96 535.49 645.07 534.59 634.32 534.17 626.68 529.59 588.79 537.09 564.49 537.09 564.49 532.23 532.43 531.4 525.77 531.95 493.84Z" fill="#230500" opacity="0.2" stroke-width="4" stroke="none"></path><path d="M546.94 438.03H589.42C592.27 445.18 593.93 452.12 595.6 459.13 595.6 459.13 595.74 459.82 595.81 459.96 596.15 459.82 555.13 451.98 546.94 438.03Z" fill="#230500" opacity="0.2" stroke-width="4" stroke="none"></path><path d="M531.95 493.83C530.77 516.67 533.34 542.28 537.16 564.42" stroke="#230500" stroke-width="4" stroke-linecap="round" stroke-linejoin="round" opacity="1" fill="none"></path><path d="M563.05 715.03C567.7 709.34 568.25 701.08 564.99 685.53 568.74 684.84 619.06 685.25 622.67 685.05 623.71 694.62 623.36 705.03 622.74 715.58 609.9 725.76 608.72 728.6 597.96 737.59 596.36 738.21 579.22 743.21 578.38 743.42 577 743.07 544.17 739.67 538.06 737.38 537.99 737.31 537.92 737.24 537.92 737.1 538.41 735.5 541.81 728.91 563.05 715.03Z" fill="#3c2c5b" opacity="1" stroke-width="4" stroke="none"></path><path d="M597.75 737.45C597.26 724.54 610.24 712.67 622.67 715.51 622.67 723.91 622.11 730.58 620.44 737.52 620.44 737.59 620.38 737.66 615.88 743.35 613.11 743.96 597.75 737.45 597.75 737.45Z" fill="#f8c73a" opacity="1" stroke-width="4" stroke="none"></path><path d="M441.86 737.24C441.72 737.24 441.66 737.03 441.72 736.89 444.43 733.49 448.04 730.99 452 728.01 471.01 715.17 472.82 705.59 473.17 685.32 476.98 684.98 531.33 685.11 535.14 685.53 534.38 695.04 533.41 705.03 531.4 715.45 524.06 726.31 520.33 730.1 504.4 737.38 504.68 737.79 480.04 743.42 479 743.76 478.93 743.83 441.93 737.17 441.86 737.24Z" fill="#3c2c5b" opacity="1" stroke-width="4" stroke="none"></path><path d="M503.98 737.66C503.98 723.15 518.35 712.11 531.47 715.58 530.08 722.73 529.04 730.37 526.96 737.24 526.96 737.31 526.82 737.38 523.87 741.06 523.73 739.63 505.99 738.21 503.98 737.66Z" fill="#f8c73a" opacity="1" stroke-width="4" stroke="none"></path><path d="M521.89 325.31V322.05C521.89 321.91 521.75 321.84 521.61 321.84 503.5 327.74 492.39 319.9 496 298.11 491.63 293.39 489.61 290.13 497.8 287.77 498.22 287.14 497.94 285.68 498.08 284.85 498.22 281.8 498.36 278.88 498.57 276.11 498.85 272.64 500.3 270.07 501.34 267.43 503.15 262.43 506.83 262.99 519.53 261.11 522.1 260.77 525.08 260.42 527.72 260.42 533.41 260.42 534.8 258.27 542.78 262.71 564.23 273.95 555.48 274.23 561.94 298.66 561.94 301.79 561.66 322.12 561.73 325.87 558.81 326.22 523.97 329.2 521.89 325.31Z" fill="#cf5934" opacity="1" stroke-width="4" stroke="none"></path><path d="M507.66 285.68C510.09 285.61 510.23 289.36 507.73 289.43 505.3 289.5 505.16 285.75 507.66 285.68Z" fill="#010005" opacity="1" stroke-width="4" stroke="none"></path><path d="M504.95 302.55C507.04 302.48 508.98 301.37 510.02 299.56" stroke="#030202" stroke-width="4" stroke-linecap="round" stroke-linejoin="round" opacity="1" fill="none"></path><path d="M521.89 321.77C525.01 320.59 527.65 319.62 530.22 318.3" stroke="#030202" stroke-width="4" stroke-linecap="round" stroke-linejoin="round" opacity="1" fill="none"></path><path d="M558.74 316.36C555.2 316.36 543.61 310.67 541.81 309.77 541.67 309.7 541.67 309.56 541.74 309.42 543.54 307.69 556.8 294.43 549.16 284.85 543.75 278.12 530.08 286.86 529.94 286.93 529.66 287.21 521.12 283.53 521.4 272.22 521.4 272.08 521.26 271.94 521.12 272.01 513.07 276.31 503.98 276.73 498.98 274.37 499.26 271.66 501.55 269.37 502.45 266.81 504.26 261.81 506.9 263.06 519.6 261.18 525.91 260.28 535.28 259.17 546.6 265.56 558.47 272.29 561.94 278.95 561.94 298.25L561.87 315.81C561.87 315.94 561.87 316.22 561.59 316.22L560.83 316.29C560.2 316.36 560.62 316.36 558.74 316.36Z" fill="#010005" opacity="1" stroke-width="4" stroke="none"></path><path d="M550.97 295.05C553.75 280.76 538.75 280.89 530.22 287.42 528.34 286.93 500.93 276.94 498.78 276.24 499.12 261.39 508.49 249.31 527.86 249.94 558.74 251.05 562.91 265.42 562.01 298.73L551.11 295.26C551.04 295.19 550.97 295.12 550.97 295.05Z" fill="#ff4f32" opacity="1" stroke-width="4" stroke="none"></path><path d="M539.52 295.19L534.73 298.59" stroke="#030202" stroke-width="4" stroke-linecap="round" stroke-linejoin="round" opacity="1" fill="none"></path><path d="M606.7 449.07C594.83 448.93 580.26 446.71 567.28 441.5 567.21 441.5 567.14 441.36 567.14 441.29 567.21 440.67 567.35 439.14 567.42 438.52 567.42 438.38 567.35 438.31 567.21 438.31 567.14 438.31 501.69 438.31 499.82 438.31H499.75C495.44 436.29 491.21 431.23 491.42 423.45 491.42 423.32 491.21 423.18 491.14 423.32 468.38 440.94 437.35 430.19 411.6 416.93 411.53 416.86 411.46 416.79 411.46 416.72 412.09 413.11 423.33 378.41 424.44 374.25 424.44 374.11 424.58 374.11 424.72 374.11 441.66 379.31 457.48 386.18 460.19 386.53 460.26 386.53 460.33 386.53 460.39 386.46 462.89 382.02 489.48 339.47 521.82 331.84 521.89 331.84 521.96 331.77 521.96 331.63 521.96 330.73 521.89 325.73 521.89 325.73 521.89 325.59 521.96 325.52 522.1 325.52 522.3 325.73 558.95 325.31 561.66 325.8 561.73 325.8 561.8 325.87 561.8 326.01 561.8 326.84 561.8 331.84 561.8 331.84 561.8 331.91 561.87 332.05 562.01 332.05 572 332.74 581.72 335.03 588.1 338.22 617.46 350.51 683.05 447.75 606.7 449.07Z" fill="#ffc930" opacity="1" stroke-width="4" stroke="none"></path><path d="M582.62 382.78L594.9 406.24" stroke="#505050" stroke-width="4" stroke-linecap="round" stroke-linejoin="round" opacity="1" fill="none"></path><path d="M521.96 331.84C521.96 331.84 518.63 332.39 515.99 333.57" stroke="#505050" stroke-width="4" stroke-linecap="round" stroke-linejoin="round" opacity="1" fill="none"></path><path d="M467.4 713.71L477.05 718.57" stroke="#000000" stroke-width="4" stroke-linecap="round" stroke-linejoin="round" opacity="1" fill="none"></path><path d="M563.67 714.2L573.11 718.57" stroke="#000000" stroke-width="4" stroke-linecap="round" stroke-linejoin="round" opacity="1" fill="none"></path><path d="M473.17 685.11L534.66 685.25" stroke="#000000" stroke-width="4" stroke-linecap="round" stroke-linejoin="round" opacity="1" fill="none"></path><path d="M565.2 685.25H622.8" stroke="#000000" stroke-width="4" stroke-linecap="round" stroke-linejoin="round" opacity="1" fill="none"></path><path d="M530.43 287.36L486.98 272.02" stroke="#230500" stroke-width="4" stroke-linecap="round" stroke-linejoin="round" opacity="1" fill="none"></path><path d="M575.96 404.3C580.05 398.19 574.85 384.52 582.62 382.78 583.73 384.73 593.24 402.98 594.76 405.96 594.83 406.1 594.7 406.24 594.56 406.24 592.13 406.03 578.32 404.85 576.03 404.65 575.96 404.58 575.89 404.44 575.96 404.3Z" fill="#505050" opacity="0.2" stroke-width="4" stroke="none"></path><path d="M521.89 321.78C525.08 320.6 527.51 319.77 530.22 318.31 530.43 318.24 530.56 318.45 530.49 318.59L523.14 329.56C522.79 330.04 522.03 329.97 522.03 329.35L521.89 321.78Z" fill="#030202" opacity="0.2" stroke-width="4" stroke="none"></path><path d="M437.56 749.8C437.42 749.8 437.35 749.73 437.35 749.59 437.35 741.68 440.61 738 441.38 737.31 441.45 737.24 441.52 737.24 441.59 737.17 445.4 737.03 526.68 737.17 526.75 737.1 526.89 737.1 526.96 737.24 526.96 737.38 526.4 739.04 524.8 745.64 523.48 749.66 523.48 749.73 523.42 749.8 523.28 749.8 519.46 749.8 437.56 749.8 437.56 749.8Z" fill="#000000" opacity="1" stroke-width="4" stroke="none"></path><path d="M534.52 749.66C534.45 745.36 534.94 740.5 537.78 737.31 537.85 737.24 537.85 737.24 537.92 737.24 540.91 737.24 620.24 737.45 620.24 737.45 620.38 737.45 620.44 737.59 620.44 737.72 618.71 744.8 617.88 748.21 616.97 750.01 616.97 750.08 616.91 750.08 616.84 750.08 611.42 750.08 541.6 749.87 534.73 749.87 534.59 749.87 534.52 749.8 534.52 749.66Z" fill="#000000" opacity="1" stroke-width="4" stroke="none"></path><path d="M553.4 341.69H434.71V472.18H553.4V341.69Z" fill="#61ccff" opacity="1" stroke-width="4" stroke="none"></path><path d="M553.4 341.69H523.21L434.71 442.12V472.18H466.5L553.4 373.55V341.69Z" fill="#3c2c5b" opacity="1" stroke-width="4" stroke="none"></path><path d="M550.34 439.29C544.65 439.29 538.96 437.9 533.76 435.54 527.44 435.75 509.19 435.61 509.46 431.93 509.46 428.88 518.28 427.7 523.9 427.21 524.11 427.21 524.11 426.86 523.9 426.79 516.47 425.96 501.55 424.16 503.84 416.59 501.14 414.72 499.68 410.76 503.77 407.71 504.68 400.14 517.86 402.22 524.53 401.81 529.59 401.81 534.1 401.88 535.91 401.95 536.12 401.95 536.19 401.74 536.05 401.6 534.38 400.07 530.49 396.25 531.05 393.83 532.85 386.88 564.43 404.37 563.32 403.4 563.32 403.4 569.78 404.03 570.96 404.17 571.51 404.17 567.97 437.83 567.49 441.23 567.49 441.37 567.35 441.44 567.21 441.37 566.03 440.95 560.69 438.87 550.34 439.29Z" fill="#cf5934" opacity="1" stroke-width="4" stroke="none"></path><path d="M503.91 407.7C516.61 407.63 539.52 409.71 539.52 409.71" stroke="#030202" stroke-width="4" stroke-linecap="round" stroke-linejoin="round" opacity="1" fill="none"></path><path d="M504.12 416.65L538.82 419.43" stroke="#030202" stroke-width="4" stroke-linecap="round" stroke-linejoin="round" opacity="1" fill="none"></path><path d="M536.39 402.01L544.1 402.63" stroke="#030202" stroke-width="4" stroke-linecap="round" stroke-linejoin="round" opacity="1" fill="none"></path><path d="M370.86 341.69V373.55C375.37 375.49 385.02 380.63 376.76 385.63 380.72 388.54 380.09 392.5 377.39 394.72 379.81 398.54 378.84 401.8 375.37 402.42 377.8 406.24 377.18 409.37 373.64 409.85 372.67 409.71 371.76 409.57 370.86 409.37V472.18H434.71V341.69H370.86Z" fill="#61ccff" opacity="1" stroke-width="4" stroke="none"></path><path d="M370.86 341.69V373.55C375.37 375.49 385.02 380.63 376.76 385.63 380.72 388.54 380.09 392.5 377.39 394.72 379.81 398.54 378.84 401.8 375.37 402.42 377.8 406.24 377.18 409.37 373.64 409.85 372.67 409.71 371.76 409.57 370.86 409.37V472.18H434.71V341.69H370.86Z" fill="#000000" opacity="0.2" stroke-width="4" stroke="none"></path><path d="M377.73 377.58C380.37 379.87 381.41 382.78 376.76 385.63 380.72 388.54 380.09 392.5 377.39 394.72 378.77 397.08 379.12 398.95 378.43 400.34 377.66 401.87 375.93 402.29 375.37 402.42 377.8 406.24 377.18 409.37 373.64 409.85 372.67 409.71 371.76 409.57 370.86 409.37" stroke="#030202" stroke-width="4" stroke-linecap="round" stroke-linejoin="round" opacity="1" fill="none"></path><path d="M360.45 379.87C363.92 383.34 373.64 386.11 376.41 385.42" stroke="#030202" stroke-width="4" stroke-linecap="round" stroke-linejoin="round" opacity="1" fill="none"></path><path d="M360.45 390.97C366 393.75 374.33 395.14 377.11 394.44" stroke="#030202" stroke-width="4" stroke-linecap="round" stroke-linejoin="round" opacity="1" fill="none"></path><path d="M361.84 400C365.31 401.38 371.9 403.12 375.37 402.42" stroke="#030202" stroke-width="4" stroke-linecap="round" stroke-linejoin="round" opacity="1" fill="none"></path><path d="M563.25 403.47L594.9 406.24" stroke="#505050" stroke-width="4" stroke-linecap="round" stroke-linejoin="round" opacity="1" fill="none"></path><path d="M434.71 472.18V341.69" stroke="#000000" stroke-width="4" stroke-linecap="round" stroke-linejoin="round" opacity="1" fill="none"></path></g></svg>