<svg xmlns="http://www.w3.org/2000/svg" height="1200" width="1600" version="1.1" xmlns:xlink="http://www.w3.org/1999/xlink" xmlns:svgjs="http://svgjs.com/svgjs"><rect fill="#f3ebe9" width="1600" height="1200"></rect><g><path d="M248.64 1016.28V640.71L273.35 640.62V1016.28H248.64Z" fill="#efdcd7" opacity="1" stroke-width="4" stroke="none"></path><path d="M996.73 1016.28V640.71L1021.44 640.62V1016.28H996.73Z" fill="#efdcd7" opacity="1" stroke-width="4" stroke="none"></path><path d="M996.73 678.59V640.71L1021.44 640.62V668.69L996.73 678.59Z" fill="#5f5f5f" opacity="0.2" stroke-width="4" stroke="none"></path><path d="M248.64 678.59V640.71L273.35 640.62V668.69L248.64 678.59Z" fill="#5f5f5f" opacity="0.2" stroke-width="4" stroke="none"></path><path d="M1021.44 645.84H996.73" stroke="#5f5f5f" stroke-width="4" stroke-linecap="round" stroke-linejoin="round" opacity="1" fill="none"></path><path d="M273.35 645.84H248.64" stroke="#5f5f5f" stroke-width="4" stroke-linecap="round" stroke-linejoin="round" opacity="1" fill="none"></path><path d="M202.15 644.31V621.72H1067.93L1068.03 644.31H202.15Z" fill="#efdcd7" opacity="1" stroke-width="4" stroke="none"></path></g><g><path d="M839.37 518.94V473.49H896.18V518.94H839.37Z" fill="#ffc930" opacity="1" stroke-width="4" stroke="none"></path><path d="M805.79 473.49H930.9" stroke="#ffc930" stroke-width="4" stroke-linecap="round" stroke-linejoin="round" opacity="1" fill="none"></path><path d="M762.99 621.83L800.86 498.11H934.69L972.56 621.83H762.99Z" fill="#fe4f32" opacity="1" stroke-width="4" stroke="none"></path><path d="M912.85 621.83L853.13 498.11H934.69L972.56 621.83H912.85Z" fill="#ce897d" opacity="0.25" stroke-width="4" stroke="none"></path><path d="M867.77 595.45C848.21 595.45 832.3 579.54 832.3 559.97 832.3 540.4 848.21 524.49 867.77 524.49 887.34 524.49 903.25 540.4 903.25 559.97 903.25 579.54 887.34 595.45 867.77 595.45Z" fill="#ffc930" opacity="1" stroke-width="4" stroke="none"></path><path d="M867.77 521.46V547.98" stroke="#000000" stroke-width="4" stroke-linecap="round" stroke-linejoin="round" opacity="1" fill="none"></path></g><g><path d="M1393.4 1016.57V658.9C1393.4 649.37 1385.6 641.57 1376.07 641.57H1085.13C1075.6 641.57 1067.8 649.37 1067.8 658.9V1016.57L1393.4 1016.57Z" fill="#61ccff" opacity="1" stroke-width="4" stroke="none"></path><path d="M1328.14 719.4C1319.57 719.4 1312.63 712.46 1312.63 703.88 1312.63 695.31 1319.57 688.37 1328.14 688.37 1336.7 688.37 1343.65 695.31 1343.65 703.88 1343.65 712.46 1336.7 719.4 1328.14 719.4Z" fill="#364146" opacity="0.2" stroke-width="4" stroke="none"></path><path d="M1263.14 719.4C1254.57 719.4 1247.63 712.46 1247.63 703.88 1247.63 695.31 1254.57 688.37 1263.14 688.37 1271.7 688.37 1278.66 695.31 1278.66 703.88 1278.66 712.46 1271.7 719.4 1263.14 719.4Z" fill="#364146" opacity="0.2" stroke-width="4" stroke="none"></path><path d="M1198.14 719.4C1206.72 719.4 1213.66 712.46 1213.66 703.88 1213.66 695.3 1206.72 688.37 1198.14 688.37 1189.56 688.37 1182.63 695.3 1182.63 703.88 1182.63 712.46 1189.56 719.4 1198.14 719.4Z" fill="#364146" opacity="0.2" stroke-width="4" stroke="none"></path><path d="M1133.14 719.4C1141.72 719.4 1148.66 712.46 1148.66 703.88 1148.66 695.3 1141.72 688.37 1133.14 688.37 1124.56 688.37 1117.63 695.3 1117.63 703.88 1117.63 712.46 1124.56 719.4 1133.14 719.4Z" fill="#364146" opacity="0.2" stroke-width="4" stroke="none"></path><path d="M1343.65 978.87V747.04H1117.63L1117.63 978.87H1343.65Z" fill="#364146" opacity="1" stroke-width="4" stroke="none"></path><path d="M1343.65 978.87L1423.13 816.55 1197.19 816.46 1117.63 978.87H1343.65Z" fill="#ffffff" opacity="1" stroke-width="4" stroke="none"></path><path d="M1343.65 641.57L1335.25 623.98H1273.28L1264.88 641.57H1343.65Z" fill="#364146" opacity="1" stroke-width="4" stroke="none"></path><path d="M1196.32 641.57L1187.92 623.98H1126.04L1117.63 641.57H1196.32Z" fill="#364146" opacity="1" stroke-width="4" stroke="none"></path><path d="M1328.14 710.21C1319.57 710.21 1312.63 703.27 1312.63 694.7 1312.63 686.13 1319.57 679.18 1328.14 679.18 1336.7 679.18 1343.65 686.13 1343.65 694.7 1343.65 703.27 1336.7 710.21 1328.14 710.21Z" fill="#3c2c5b" opacity="1" stroke-width="4" stroke="none"></path><path d="M1345.3 694.7H1332.73" stroke="#000000" stroke-width="4" stroke-linecap="round" opacity="1" fill="none"></path><path d="M1263.14 710.21C1254.57 710.21 1247.63 703.27 1247.63 694.7 1247.63 686.13 1254.57 679.18 1263.14 679.18 1271.7 679.18 1278.66 686.13 1278.66 694.7 1278.66 703.27 1271.7 710.21 1263.14 710.21Z" fill="#3c2c5b" opacity="1" stroke-width="4" stroke="none"></path><path d="M1263.14 677.54V690.1" stroke="#000000" stroke-width="4" stroke-linecap="round" opacity="1" fill="none"></path><path d="M1198.14 710.21C1206.72 710.21 1213.66 703.28 1213.66 694.7 1213.66 686.12 1206.72 679.18 1198.14 679.18 1189.56 679.18 1182.63 686.12 1182.63 694.7 1182.63 703.28 1189.56 710.21 1198.14 710.21Z" fill="#3c2c5b" opacity="1" stroke-width="4" stroke="none"></path><path d="M1198.14 677.54V690.1" stroke="#000000" stroke-width="4" stroke-linecap="round" opacity="1" fill="none"></path><path d="M1133.14 710.21C1141.72 710.21 1148.66 703.28 1148.66 694.7 1148.66 686.12 1141.72 679.18 1133.14 679.18 1124.56 679.18 1117.63 686.12 1117.63 694.7 1117.63 703.28 1124.56 710.21 1133.14 710.21Z" fill="#3c2c5b" opacity="1" stroke-width="4" stroke="none"></path><path d="M1133.14 677.54V690.1" stroke="#000000" stroke-width="4" stroke-linecap="round" opacity="1" fill="none"></path><path d="M1337.85 863.52C1342.27 863.52 1345.91 859.88 1345.91 855.46 1345.91 851.04 1342.27 847.4 1337.85 847.4H1245.9C1241.48 847.4 1237.84 851.04 1237.84 855.46 1237.84 859.88 1241.48 863.52 1245.9 863.52H1337.85Z" fill="#959595" opacity="1" stroke-width="4" stroke="none"></path></g><g><path d="M247.26 586.19L247.24 456.27 349.16 456.25 349.18 586.19H247.26Z" fill="#dddddd" opacity="0.25" stroke-width="4" stroke="none"></path><path d="M219.18 454.63H361.84" stroke="#232323" stroke-width="4" stroke-linecap="round" stroke-linejoin="round" opacity="1" fill="none"></path><path d="M239.37 578.57L239.35 450.35 341.27 450.33 341.29 578.57H239.37Z" fill="#ffffff" opacity="1" stroke-width="4" stroke="none"></path><path d="M314.97 450.68V578.22" stroke="#61ccff" stroke-width="4" stroke-linecap="round" stroke-linejoin="round" opacity="1" fill="none"></path><path d="M341.46 554.55H239.56" stroke="#61ccff" stroke-width="4" stroke-linecap="round" stroke-linejoin="round" opacity="1" fill="none"></path><path d="M265.66 450.68V578.22" stroke="#61ccff" stroke-width="4" stroke-linecap="round" stroke-linejoin="round" opacity="1" fill="none"></path></g><g><path d="M934.81 952.46H790.11V972.82H934.81V952.46Z" fill="#808080" opacity="1" stroke-width="4" stroke="none"></path><path d="M934.81 831.12H790.11V861.32H934.81V831.12Z" fill="#808080" opacity="1" stroke-width="4" stroke="none"></path><path d="M804.66 828.55H784.29V1014.84H804.66V828.55Z" fill="#ffffff" opacity="1" stroke-width="4" stroke="none"></path><path d="M940.55 828.55H920.18V1014.84H940.55V828.55Z" fill="#ffffff" opacity="1" stroke-width="4" stroke="none"></path><path d="M771.71 820.76H953.13C958.77 820.76 963.31 825.3 963.31 830.94 963.31 836.59 958.77 841.13 953.13 841.13H771.71C766.06 841.13 761.53 836.59 761.53 830.94 761.53 825.3 766.15 820.76 771.71 820.76Z" fill="#ffffff" opacity="1" stroke-width="4" stroke="none"></path><path d="M784.29 841.13H941.57" stroke="#808080" stroke-width="4" stroke-linecap="round" stroke-linejoin="round" opacity="1" fill="none"></path><path d="M804.57 861.07V843.1" stroke="#808080" stroke-width="4" stroke-linecap="round" stroke-linejoin="round" opacity="1" fill="none"></path><path d="M920.35 861.07V843.1" stroke="#808080" stroke-width="4" stroke-linecap="round" stroke-linejoin="round" opacity="1" fill="none"></path><path d="M804.57 972.57V952.8" stroke="#808080" stroke-width="4" stroke-linecap="round" stroke-linejoin="round" opacity="1" fill="none"></path><path d="M920.35 972.57V952.8" stroke="#808080" stroke-width="4" stroke-linecap="round" stroke-linejoin="round" opacity="1" fill="none"></path></g><g><path d="M549.79 316.4C549.79 316.4 549.95 316.32 549.95 316.16 550.27 307.56 546.57 299.84 542.23 294.77 533.39 283.44 512.33 277.49 496.49 281.35 496.41 281.35 496.33 281.43 496.33 281.51 490.54 300.96 501.55 328.78 502.6 331.35 502.68 331.43 502.76 331.51 502.84 331.51 506.14 330.47 549.79 316.4 549.79 316.4Z" fill="#fe4f32" stroke="#7e47ea" stroke-width="4" opacity="1"></path><path d="M570.85 509.65L612.01 451.21C612.09 451.13 612.25 451.05 612.33 451.13L624.95 460.45C625.03 460.53 625.19 460.53 625.27 460.37 628.57 456.27 690.71 378.7 699.79 384 702.68 385.69 701.16 391.08 700.59 392.93 700.51 393.17 700.75 393.33 700.91 393.17 703.17 391.72 712.01 386.25 721.01 384 725.43 382.72 731.38 383.76 734.36 386.74 739.34 391.4 737.33 397.59 736.77 398.96 736.69 399.12 736.77 399.28 736.93 399.28 738.05 399.44 741.83 400.16 743.92 402.98 745.37 404.99 745.77 407.56 745.05 410.77 745.05 410.85 745.05 410.93 745.13 411.01 746.01 411.74 752.12 417.04 747.14 424.04 747.06 424.12 747.06 424.28 747.22 424.36 750.75 426.37 751.88 431.35 748.34 436.09 747.38 437.62 746.09 438.99 744.56 440.27 741.67 442.77 737.89 444.7 733.71 445.82 732.67 446.06 731.7 446.3 730.66 446.46 730.66 446.46 730.66 446.46 730.58 446.46 728.17 446.38 726.48 445.1 725.75 443.25 725.67 443.09 725.43 443.01 725.35 443.25 710.48 471.95 672.94 533.77 625.99 531.59 601.88 530.47 573.42 511.74 570.85 509.97 570.85 509.89 570.77 509.73 570.85 509.65Z" fill="#fdbe80" opacity="1" stroke-width="4" stroke="none"></path><path d="M714.02 401.53C712.97 403.14 712.33 404.82 712.17 406.51 712.17 406.59 712.09 406.67 712.01 406.67L698.5 407.96C698.34 407.96 698.18 407.8 698.26 407.64 706.14 395.74 716.51 395.5 719 395.58 719.24 395.58 719.32 395.82 719.16 395.98 717.15 397.67 715.3 399.52 714.02 401.53Z" fill="#000000" opacity="0.2" stroke-width="4" stroke="none"></path><path d="M520.53 390.11C520.53 389.95 520.61 389.87 520.77 389.87 528.81 391.08 537.01 389.55 544.32 385.85 554.37 380.47 557.74 367.93 554.05 349.44 552.04 340.03 551.72 327.65 549.95 316.4 548.66 308.2 546.49 300.64 542.15 295.26 528.64 278.46 496.01 275.4 478.16 289.87 445.77 313.83 459.43 357.96 462.57 389.07 462.81 391.64 463.05 394.13 463.13 396.46 463.13 396.62 463.21 396.71 463.37 396.71 465.14 396.71 494.24 402.65 494.24 402.65 494.24 402.65 519.16 396.87 521.25 396.87 521.41 396.87 521.49 396.71 521.49 396.62L520.53 390.11Z" fill="#fdbe80" opacity="1" stroke-width="4" stroke="none"></path><path d="M543.68 551.05C543.76 551.05 543.92 550.97 543.92 550.89L550.27 516.72 553.48 497.43C553.48 497.27 553.73 497.19 553.89 497.27 559.03 501.61 564.74 505.79 570.61 509.73 570.69 509.81 571.01 510.05 571.09 509.97L612.33 451.13C612.41 451.05 612.17 450.89 612.09 450.81 603.73 444.62 582.83 429.58 565.7 419.13 547.54 408.52 530.82 408.2 523.34 408.2 523.26 408.2 523.1 408.12 523.1 408.04 522.94 406.67 521.65 398.31 521.49 396.95 521.49 396.87 521.41 396.79 521.25 396.79L463.37 396.38C463.21 396.38 463.13 396.46 463.13 396.62 463.29 398.23 464.09 405.63 464.25 407.48 464.25 407.64 464.17 407.72 464.01 407.72 421.65 412.54 407.26 403.3 358.55 480.95 358.47 481.03 358.47 481.19 358.63 481.27 361.6 483.76 407.66 522.35 411.04 525.16 411.12 525.24 411.28 525.24 411.36 525.08L422.61 507.72C422.69 507.56 423.02 507.56 423.02 507.8L431.94 552.09C431.94 552.17 432.02 552.25 432.18 552.25L543.68 551.05Z" fill="#ffc930" opacity="1" stroke-width="4" stroke="none"></path><path d="M438.69 551.93L433.95 489.63C433.95 489.39 433.63 489.31 433.55 489.55L423.02 507.32C423.02 507.4 423.02 507.4 423.02 507.48L432.02 552.25C432.02 552.33 432.1 552.41 432.26 552.41L438.53 552.25C438.61 552.17 438.69 552.09 438.69 551.93Z" fill="#343027" stroke="#ffc930" stroke-width="4" opacity="0.2"></path><path d="M369.56 780.55C383.39 701.13 384.51 607.64 431.38 549.6 431.46 549.52 431.46 549.52 431.54 549.52 438.45 549.36 512.89 549.68 519.48 549.52 531.46 550.24 542.71 549.76 544.16 549.84 544.24 549.84 544.32 549.92 544.32 550 571.33 629.1 583.71 765.12 559.35 858.93 556.54 874.04 553.89 888.27 551.72 901.78 551.72 901.86 551.64 901.94 551.47 901.94 549.14 901.94 507.9 909.98 507.9 909.98 507.9 909.98 467.63 901.94 465.46 901.94 465.3 901.94 465.22 901.86 465.22 901.7 464.42 843.18 473.02 814.8 480.89 779.99 484.27 764.64 481.22 747.92 475.99 730.23 475.91 729.99 475.59 729.99 475.51 730.23 465.86 769.46 456.38 809.17 442.63 849.77 437 867.29 431.22 885.46 426.71 901.78 426.71 901.86 426.63 901.94 426.47 901.94 424.3 901.94 378.24 908.69 378.24 908.69 378.24 908.69 336.92 901.94 334.51 901.94 334.35 901.94 334.27 901.86 334.27 901.7 335.72 847.19 357.42 819.62 369.56 780.55Z" fill="#61ccff" opacity="1" stroke-width="4" stroke="none"></path><path d="M464.82 1001.94C464.98 1001.94 465.06 1001.78 464.98 1001.62 456.14 984.66 435.96 981.12 423.34 966.57 413.77 956.04 420.12 926.62 426.71 902.18 426.71 902.02 426.63 901.86 426.47 901.86L334.67 901.94C334.51 901.94 334.43 902.02 334.43 902.18 334.27 938.92 341.66 987.15 345.28 1001.7 345.28 1001.78 345.36 1001.86 345.52 1001.86 347.69 1001.86 396.25 1008.61 396.25 1008.61 396.25 1008.61 460.96 1001.94 464.82 1001.94Z" fill="#fe4f32" opacity="1" stroke-width="4" stroke="none"></path><path d="M596.81 1001.94C596.97 1001.94 597.05 1001.78 596.97 1001.62 587.97 984.66 567.07 981.12 554.45 966.57 546.97 958.37 546.09 938.43 551.72 902.18 551.72 902.02 551.64 901.94 551.47 901.94L465.54 901.78C465.38 901.78 465.3 901.86 465.3 902.02 466.02 938.76 472.61 987.15 476.47 1001.78 476.47 1001.86 476.55 1001.94 476.71 1001.94 478.89 1001.94 525.35 1008.69 525.35 1008.69 525.35 1008.69 592.79 1001.94 596.81 1001.94Z" fill="#fe4f32" opacity="1" stroke-width="4" stroke="none"></path><path d="M573.02 757.48C578 643.82 545.93 554.26 544.4 550.08 544.4 550 544.32 549.92 544.16 549.92L466.67 549.44C466.59 549.44 466.51 549.52 466.43 549.6 465.62 552.25 455.49 587.46 452.76 634.17 449.54 680.07 487.73 732.16 481.62 776.45 481.06 780.71 477.2 796.15 476.15 800.89 476.07 801.05 476.31 801.21 476.47 801.13L572.86 757.64C573.02 757.64 573.02 757.56 573.02 757.48Z" fill="#262d30" opacity="0.2" stroke-width="4" stroke="none"></path><path d="M468.92 757.4C498.9 636.98 518.11 555.15 519.4 549.84 519.4 549.68 519.32 549.6 519.16 549.6H431.54C431.46 549.6 431.38 549.6 431.38 549.68 419.56 564.71 408.39 585.78 397.86 616.32 397.86 616.4 397.86 616.56 397.94 616.56 398.5 616.89 400.59 618.09 402.28 621.15 404.13 624.52 405.81 630.79 403.8 641.89 394.08 692.77 381.05 732.4 383.55 799.04 383.55 799.2 383.71 799.28 383.87 799.28 389.33 796.71 465.78 759.17 468.76 757.72 468.92 757.48 468.92 757.48 468.92 757.4Z" fill="#262d30" opacity="0.2" stroke-width="4" stroke="none"></path><path d="M457.82 551.29C426.87 650.89 427.44 734.65 417.15 775.97 409.43 807 384.19 851.29 375.83 901.05" stroke="#eaf8fe" stroke-width="4" stroke-linecap="round" stroke-linejoin="round" opacity="1" fill="none"></path><path d="M600.67 1015.28C600.27 1010.22 598.98 1005.64 597.13 1001.7 597.13 1001.62 597.05 1001.54 596.89 1001.54L476.88 1001.7C476.71 1001.7 476.63 1001.86 476.63 1002.02 478.48 1010.06 479.85 1014.48 480.09 1015.36 480.09 1015.44 480.17 1015.52 480.33 1015.52H600.43C600.59 1015.52 600.67 1015.44 600.67 1015.28Z" fill="#3c2c5b" opacity="1" stroke-width="4" stroke="none"></path><path d="M468.52 1015.28C468.19 1010.38 466.99 1005.72 465.14 1001.78 465.14 1001.7 465.06 1001.62 464.9 1001.62L345.68 1001.78C345.52 1001.78 345.44 1001.94 345.44 1002.1 347.29 1010.14 348.66 1014.56 348.9 1015.44 348.9 1015.52 348.98 1015.61 349.14 1015.61 353.88 1015.69 462.49 1015.61 468.27 1015.61 468.43 1015.52 468.52 1015.44 468.52 1015.28Z" fill="#3c2c5b" opacity="1" stroke-width="4" stroke="none"></path><path d="M462.81 388.91C465.54 387.94 478.89 382.8 484.99 365.68 484.99 365.6 484.99 365.52 484.91 365.43 483.31 363.91 464.98 345.9 473.66 334.89 476.07 331.75 479.45 329.9 483.07 329.9 492.39 329.9 502.6 341.08 503.81 342.44 503.89 342.52 503.97 342.52 504.13 342.44 520.12 332.64 530.65 316.48 531.62 314.87 531.7 314.79 531.78 314.79 531.86 314.79 538.21 316.32 542.71 316.64 545.37 316.64 548.1 316.64 548.74 316.08 548.9 315.84 548.9 315.76 548.98 315.76 548.9 315.68 548.74 314.55 548.5 313.42 548.34 312.22 546.17 292.85 530.01 282.15 506.86 281.83 496.41 281.83 486.6 283.68 478.16 289.79 457.58 305.71 463.84 324.56 457.26 346.06 458.63 360.21 460.64 378.62 462.57 388.75 462.57 388.83 462.65 388.91 462.81 388.91Z" fill="#000000" opacity="1" stroke-width="4" stroke="none"></path><path d="M471.11 341.64C471.19 341.64 471.27 341.56 471.27 341.4 471.51 335.45 476.98 329.9 482.77 330.14 486.14 330.14 489.92 331.51 494.1 334.24 494.18 334.24 494.26 334.32 494.26 334.24L502.62 331.59 550.82 315.81C550.6 313.96 550.2 310.69 549.8 308.08 546.79 289.37 525.1 280.42 512.29 279.28 508.4 278.8 499.41 278.93 493.58 280.19 447.96 291.88 456.32 341.8 457.04 345.82 457.04 345.98 457.2 346.06 457.37 345.98L471.11 341.64Z" fill="#f43719" stroke="#fe4f32" stroke-width="4" stroke-linejoin="round" opacity="1"></path><path d="M520.77 389.87C514.01 388.51 510.4 387.62 504.21 385.69" stroke="#000000" stroke-width="4" stroke-linecap="round" stroke-linejoin="round" opacity="1" fill="none"></path><path d="M492.15 351.21L484.19 345.18" stroke="#000000" stroke-width="4" stroke-linecap="round" stroke-linejoin="round" opacity="1" fill="none"></path><path d="M535.32 366.16C532.82 366.48 530.33 365.27 528.97 363.1" stroke="#000000" stroke-width="4" stroke-linecap="round" stroke-linejoin="round" opacity="1" fill="none"></path><path d="M523.1 346.62C521.59 346.62 520.36 345.4 520.36 343.89 520.36 342.38 521.59 341.16 523.1 341.16 524.61 341.16 525.83 342.38 525.83 343.89 525.83 345.4 524.61 346.62 523.1 346.62Z" fill="#000000" opacity="1" stroke-width="4" stroke="none"></path><path d="M543.92 343.01C542.42 343.01 541.19 341.78 541.19 340.27 541.19 338.76 542.42 337.54 543.92 337.54 545.43 337.54 546.65 338.76 546.65 340.27 546.65 341.78 545.43 343.01 543.92 343.01Z" fill="#000000" opacity="1" stroke-width="4" stroke="none"></path><path d="M537.65 350C538.29 351.85 538.85 354.1 538.61 354.82 538.05 355.79 537.17 356.59 536.12 356.91" stroke="#000000" stroke-width="4" stroke-linecap="round" stroke-linejoin="round" opacity="1" fill="none"></path><path d="M495.93 333.68L571.17 309.49" stroke="#fe4f32" stroke-width="4" stroke-linecap="round" stroke-linejoin="round" opacity="1" fill="none"></path><path d="M625.27 460.37L612.97 475.4" stroke="#000000" stroke-width="4" stroke-linecap="round" stroke-linejoin="round" opacity="1" fill="none"></path><path d="M555.9 481.84L553.48 497.03" stroke="#343027" stroke-width="4" stroke-linecap="round" stroke-linejoin="round" opacity="1" fill="none"></path><path d="M433.55 489.55L422.94 507.32" stroke="#343027" stroke-width="4" stroke-linecap="round" stroke-linejoin="round" opacity="1" fill="none"></path><path d="M430.97 411.09C433.87 410.13 436.84 409.81 441.02 409.73 441.1 409.73 441.18 409.81 441.26 409.89L464.42 475.48C464.42 475.56 464.5 475.65 464.66 475.65H532.26C532.34 475.65 532.5 475.56 532.5 475.48L545.37 411.09C545.37 410.93 545.53 410.85 545.61 410.93 549.3 411.5 552.44 412.54 555.17 414.07 555.25 414.15 555.33 414.23 555.25 414.31L543.03 475.56C543.03 475.65 543.03 475.73 543.03 475.89L550.19 516.64V516.72L544.32 550.81C544.32 550.89 544.24 550.97 544.08 550.97L438.93 552.17C438.77 552.17 438.69 552.01 438.69 551.93L453.64 476.77C453.72 476.53 453.64 476.21 453.56 475.97L430.81 411.42C430.81 411.26 430.89 411.17 430.97 411.09Z" fill="#3c2c5b" opacity="1" stroke-width="4" stroke="none"></path><path d="M502.76 431.43C499.57 431.43 496.97 428.84 496.97 425.64 496.97 422.45 499.57 419.86 502.76 419.86 505.96 419.86 508.55 422.45 508.55 425.64 508.55 428.84 505.96 431.43 502.76 431.43Z" fill="#343027" opacity="1" stroke-width="4" stroke="none"></path><path d="M502.76 452.82C499.57 452.82 496.97 450.22 496.97 447.03 496.97 443.83 499.57 441.24 502.76 441.24 505.96 441.24 508.55 443.83 508.55 447.03 508.55 450.22 505.96 452.82 502.76 452.82Z" fill="#343027" opacity="1" stroke-width="4" stroke="none"></path><path d="M464.34 407.72L454.29 408.68" stroke="#343027" stroke-width="4" stroke-linecap="round" stroke-linejoin="round" opacity="1" fill="none"></path><path d="M573.02 757.4C578.65 631.19 546.09 554.18 544.48 550.49 544.48 550.41 544.4 550.32 544.32 550.32 527.84 550 457.82 549.36 439.5 549.52 439.42 549.52 439.33 549.6 439.25 549.68 437.81 554.34 407.18 656.6 407.1 757.4 407.1 757.56 407.18 757.64 407.34 757.64L572.78 757.64C572.94 757.56 573.02 757.48 573.02 757.4Z" fill="#3c2c5b" opacity="1" stroke-width="4" stroke="none"></path><path d="M518.52 506.35H479.05" stroke="#000000" stroke-width="4" stroke-linecap="round" stroke-linejoin="round" opacity="1" fill="none"></path><path d="M438.45 566.72C439.74 547.51 463.13 551.05 463.37 570.34H488.29V587.38H463.37C463.29 596.39 457.34 603.62 450.03 603.62 436.92 603.14 435.4 586.18 443.6 578.78 440.3 575.57 438.53 571.31 438.45 566.72Z" fill="#ffffff" opacity="1" stroke-width="4" stroke="none"></path><path d="M516.43 578.06C516.43 552.82 535.72 531.92 560.32 529.42 562.01 529.26 610.4 525.97 613.45 578.54 613.53 604.99 592.23 626.61 564.98 626.61 538.21 626.45 516.43 604.91 516.43 578.06Z" fill="#fcefed" opacity="1" stroke-width="4" stroke="none"></path><path d="M560.24 529.42C628.32 525.32 633.15 624.52 564.98 626.93 492.87 625.73 466.26 587.87 485.32 559.57 496.01 543.81 520.93 531.11 560.24 529.42ZM602.12 578.06C600.59 529.42 530.09 529.42 528.56 578.06 530.09 626.69 600.59 626.69 602.12 578.06Z" fill="#fe4f32" opacity="1" stroke-width="4" stroke="none"></path><path d="M565.3 588.67C559.44 588.67 554.69 583.92 554.69 578.06 554.69 572.2 559.44 567.45 565.3 567.45 571.16 567.45 575.91 572.2 575.91 578.06 575.91 583.92 571.16 588.67 565.3 588.67Z" fill="#ffffff" opacity="1" stroke-width="4" stroke="none"></path><path d="M564.1 626.93C600.59 626.93 622.38 593.65 610.56 560.13 610.48 559.89 610.16 559.97 610.16 560.13 596.49 600.49 552.12 598.32 516.99 581.92 501.63 575.16 490.06 566.88 485.48 559.81 485.4 559.65 485.16 559.65 485.07 559.81 473.9 576.77 479.77 593.98 494.08 606.19 510.08 619.62 536.12 626.61 564.1 626.93Z" fill="#131010" opacity="0.2" stroke-width="4" stroke="none"></path><path d="M377.44 607.24C399.46 608.61 446.81 589.47 452.28 586.98 452.6 586.82 453 586.82 453.32 586.98 462.16 591 476.63 589.47 481.94 587.38H482.02C483.23 587.7 502.36 592.29 511.68 594.06 517.95 595.5 525.91 594.94 526.88 591.16 526.88 591.08 527.04 591 527.12 591 534.59 592.45 536.36 586.66 535.48 582.08 535.48 581.92 535.56 581.84 535.64 581.84 541.43 581.11 542.95 576.93 540.3 571.71 540.22 571.63 540.3 571.55 540.3 571.47 546.81 564.31 538.53 555.31 517.47 547.03 517.23 546.95 517.31 546.63 517.55 546.63 523.74 545.66 525.19 538.27 517.71 536.42 488.93 527.49 425.75 537.78 401.07 541.8 400.91 541.8 400.75 541.64 400.83 541.48 402.44 538.91 410.88 525.97 411.92 524.36 412 524.28 412 524.12 411.84 524.04L358.79 481.19C358.71 481.11 358.55 481.11 358.47 481.27 356.29 484.65 329.93 527.74 327.6 550.89 323.9 585.7 342.55 607.4 377.44 607.24Z" fill="#fdbe80" opacity="1" stroke-width="4" stroke="none"></path><path d="M540.14 571.63C527.28 564.15 513.85 556.51 499.71 551.85" stroke="#000000" stroke-width="4" stroke-linecap="round" stroke-linejoin="round" opacity="1" fill="none"></path><path d="M535.4 581.92C531.14 579.51 515.46 570.74 494.24 563.43" stroke="#000000" stroke-width="4" stroke-linecap="round" stroke-linejoin="round" opacity="1" fill="none"></path><path d="M526.72 591.08C522.45 588.67 509.43 582.88 489.98 574.36" stroke="#000000" stroke-width="4" stroke-linecap="round" stroke-linejoin="round" opacity="1" fill="none"></path><path d="M517.31 546.95C511.84 545.1 503.32 541 494.24 539.15" stroke="#000000" stroke-width="4" stroke-linecap="round" stroke-linejoin="round" opacity="1" fill="none"></path><path d="M700.67 393.17C698.5 398.15 695.93 403.22 693.2 407.88" stroke="#000000" stroke-width="4" stroke-linecap="round" stroke-linejoin="round" opacity="1" fill="none"></path><path d="M667.39 465.03C682.1 440.76 679.53 435.61 685.96 417.45 693.44 400.32 705.01 398.23 714.02 401.61 711.85 405.07 711.12 409 714.26 413.1 714.02 413.51 713.78 414.23 713.54 415.11 712.73 418.65 712.89 424.6 719.16 424.76 720.29 424.76 721.01 424.52 720.93 424.52 720.85 424.68 718.04 430.47 720.61 434.41 722.22 436.82 725.43 436.98 726.56 436.98 726.8 436.98 726.8 436.98 726.64 437.14 724.15 441.32 726 446.22 730.82 446.38 731.86 446.22 732.91 445.98 733.95 445.74 738.21 444.62 741.91 442.69 744.81 440.19 747.54 446.79 749.71 453.54 751.32 459.97 760.56 494.86 742.64 527.01 705.9 526.93 673.74 527.66 649.95 493.01 667.39 465.03Z" fill="#fdeae7" opacity="1" stroke-width="4" stroke="none"></path><path d="M667.31 464.95C682.02 440.68 679.45 435.53 685.88 417.36 691.35 404.18 702.36 397.19 714.02 401.53 711.77 404.99 711.04 409 714.18 413.1 713.94 413.51 713.7 414.23 713.45 415.11 711.45 413.67 709.35 412.7 707.18 412.3 699.71 411.98 695.37 425.24 694.08 432.32 691.99 441 689.42 451.93 677.68 471.14 672.38 479.5 672.22 490.03 677.2 498.72 687.89 519.46 722.54 519.62 734.76 501.37 745.37 486.98 741.35 464.23 733.79 445.74 738.05 444.62 741.75 442.69 744.64 440.19 747.3 446.79 749.47 453.46 751.08 459.81 760.4 494.62 742.39 526.93 705.66 526.85 673.74 527.58 649.87 492.85 667.31 464.95Z" fill="#fe4f32" opacity="1" stroke-width="4" stroke="none"></path><path d="M707.35 496.39C700.16 496.39 694.32 490.55 694.32 483.36 694.32 476.17 700.16 470.34 707.35 470.34 714.54 470.34 720.37 476.17 720.37 483.36 720.37 490.55 714.54 496.39 707.35 496.39Z" fill="#ffffff" opacity="1" stroke-width="4" stroke="none"></path><path d="M736.53 444.94C734.6 445.66 732.67 446.14 730.74 446.38 725.91 446.22 724.15 441.4 726.56 437.14 726.64 436.98 726.72 436.98 726.48 436.98 717.72 437.06 719 428.06 720.93 424.52 713.05 426.29 711.93 417.77 714.26 413.1 711.2 409 712.25 404.42 714.5 400.97" stroke="#000000" stroke-width="4" stroke-linecap="round" stroke-linejoin="round" opacity="1" fill="none"></path><path d="M747.22 423.96C743.6 426.93 737.01 431.75 727.04 437.14" stroke="#000000" stroke-width="4" stroke-linecap="round" stroke-linejoin="round" opacity="1" fill="none"></path><path d="M744.56 411.09C740.22 414.47 730.34 421.22 720.05 424.84" stroke="#000000" stroke-width="4" stroke-linecap="round" stroke-linejoin="round" opacity="1" fill="none"></path><path d="M737.09 398.96C732.83 402.57 726.08 408.36 714.66 412.86" stroke="#000000" stroke-width="4" stroke-linecap="round" stroke-linejoin="round" opacity="1" fill="none"></path><path d="M714.34 400.97C715.79 398.88 717.72 397.59 719.48 395.74" stroke="#000000" stroke-width="4" stroke-linecap="round" stroke-linejoin="round" opacity="1" fill="none"></path><path d="M401.07 541.8C401.07 541.8 381.7 545.66 374.22 546.95" stroke="#000000" stroke-width="4" stroke-linecap="round" stroke-linejoin="round" opacity="1" fill="none"></path><path d="M520.28 389.79C519.08 389.55 511.04 387.78 504.21 385.69 503.97 385.61 503.81 385.93 503.97 386.09L521.81 402.57C521.97 402.73 522.21 402.57 522.21 402.41L520.45 390.03C520.45 389.87 520.45 389.79 520.28 389.79Z" fill="#000000" opacity="0.2" stroke-width="4" stroke="none"></path><path d="M555.9 481.84L553.48 496.95C553.48 497.03 553.48 497.11 553.56 497.19 555.49 498.88 567.87 508.85 578.97 515.03 579.21 515.12 579.37 514.87 579.29 514.71 576.72 511.02 565.78 495.34 556.3 481.84 556.22 481.51 555.98 481.59 555.9 481.84Z" fill="#343027" stroke="#ffc930" stroke-width="4" opacity="0.2"></path><path d="M624.95 460.37C624.39 459.89 622.3 458.36 619.56 456.35 619.4 456.27 619.24 456.35 619.24 456.43L612.97 475.32 624.95 460.69C625.03 460.61 625.03 460.45 624.95 460.37Z" fill="#000000" opacity="0.2" stroke-width="4" stroke="none"></path><path d="M400.59 541.8L407.42 531.35C407.58 531.19 407.34 530.95 407.1 531.03L374.06 546.55C373.82 546.63 373.9 547.03 374.22 546.95L400.43 541.88C400.51 541.88 400.59 541.88 400.59 541.8Z" fill="#000000" opacity="0.2" stroke-width="4" stroke="none"></path></g></svg>